<svg width="25" height="25" viewBox="0 0 25 25" fill="none" xmlns="http://www.w3.org/2000/svg">
<path d="M24.6785 10.674L12.9598 0.184594C12.8263 0.0646417 12.6653 0 12.5 0C12.3347 0 12.1737 0.0646417 12.0402 0.184594L0.321485 10.674C0.238537 10.7483 0.168293 10.842 0.114765 10.9497C0.0612359 11.0575 0.0254711 11.1771 0.00951106 11.3019C-0.00644901 11.4266 -0.00229128 11.554 0.0217471 11.6767C0.0457856 11.7995 0.0892337 11.9152 0.149611 12.0173C0.209988 12.1194 0.286112 12.2058 0.373637 12.2717C0.461161 12.3376 0.558371 12.3816 0.659717 12.4013C0.864395 12.4409 1.0735 12.3789 1.24102 12.2288L2.7832 10.8481V24.0385C2.7832 24.2935 2.86551 24.538 3.01203 24.7184C3.15854 24.8987 3.35725 25 3.56445 25H9.87305C10.0802 25 10.279 24.8987 10.4255 24.7184C10.572 24.538 10.6543 24.2935 10.6543 24.0385V15.0067H14.3457V24.0385C14.3457 24.2935 14.428 24.538 14.5745 24.7184C14.721 24.8987 14.9198 25 15.127 25H21.4355C21.6427 25 21.8415 24.8987 21.988 24.7184C22.1345 24.538 22.2168 24.2935 22.2168 24.0385V10.849L23.759 12.2298C23.8419 12.3043 23.936 12.3579 24.0358 12.3876C24.1356 12.4172 24.2391 12.4223 24.3406 12.4026C24.442 12.3828 24.5392 12.3386 24.6267 12.2725C24.7142 12.2064 24.7902 12.1197 24.8504 12.0173C24.9108 11.9152 24.9542 11.7995 24.9783 11.6767C25.0023 11.554 25.0065 11.4266 24.9905 11.3019C24.9745 11.1771 24.9388 11.0575 24.8852 10.9497C24.8317 10.842 24.7615 10.7483 24.6785 10.674ZM20.6543 23.0779H15.9082V14.0461C15.9082 13.7911 15.8259 13.5466 15.6794 13.3662C15.5329 13.1859 15.3342 13.0846 15.127 13.0846H9.87305C9.66585 13.0846 9.46713 13.1859 9.32062 13.3662C9.17411 13.5466 9.0918 13.7911 9.0918 14.0461V23.0779H4.3457V9.44999L12.5004 2.15094L20.6551 9.44999L20.6543 23.0779Z" fill="black"/>
</svg>
